<svg width="22" height="22" viewBox="0 0 22 22" fill="none" xmlns="http://www.w3.org/2000/svg">
<g id="Layer 2">
<path id="Vector" d="M17.5 21.5625H4.5C3.42256 21.5625 2.38925 21.1345 1.62738 20.3726C0.865512 19.6108 0.4375 18.5774 0.4375 17.5V6.125C0.4375 5.90951 0.523102 5.70285 0.675476 5.55048C0.827849 5.3981 1.03451 5.3125 1.25 5.3125H17.5C18.5774 5.3125 19.6108 5.74051 20.3726 6.50238C21.1345 7.26425 21.5625 8.29756 21.5625 9.375V17.5C21.5625 18.5774 21.1345 19.6108 20.3726 20.3726C19.6108 21.1345 18.5774 21.5625 17.5 21.5625ZM2.0625 6.9375V17.5C2.0625 18.1465 2.31931 18.7665 2.77643 19.2236C3.23355 19.6807 3.85353 19.9375 4.5 19.9375H17.5C18.1465 19.9375 18.7665 19.6807 19.2236 19.2236C19.6807 18.7665 19.9375 18.1465 19.9375 17.5V9.375C19.9375 8.72853 19.6807 8.10855 19.2236 7.65143C18.7665 7.19431 18.1465 6.9375 17.5 6.9375H2.0625Z" fill="black"/>
<path id="Vector_2" d="M19.125 6.93749C18.9095 6.93749 18.7028 6.85189 18.5505 6.69951C18.3981 6.54714 18.3125 6.34048 18.3125 6.12499V3.89061C18.3281 3.60599 18.2792 3.32152 18.1694 3.05843C18.0597 2.79535 17.892 2.56044 17.6787 2.37124C17.4872 2.22771 17.2654 2.12971 17.0303 2.08466C16.7952 2.03961 16.5529 2.0487 16.3219 2.11124L2.69625 5.20686C2.51296 5.24814 2.34965 5.35166 2.2341 5.4998C2.11855 5.64794 2.05791 5.83154 2.0625 6.01936C2.0625 6.23485 1.9769 6.44151 1.82452 6.59389C1.67215 6.74626 1.46549 6.83186 1.25 6.83186C1.03451 6.83186 0.827847 6.74626 0.675474 6.59389C0.523101 6.44151 0.437498 6.23485 0.437498 6.01936C0.432731 5.46393 0.61781 4.92353 0.962089 4.48764C1.30637 4.05175 1.7892 3.74652 2.33062 3.62249L15.9644 0.526863C16.4333 0.408299 16.9231 0.398644 17.3963 0.498637C17.8695 0.598629 18.3135 0.805616 18.6944 1.10374C19.0971 1.44551 19.4178 1.87338 19.633 2.35574C19.8482 2.8381 19.9522 3.36264 19.9375 3.89061V6.12499C19.9375 6.34048 19.8519 6.54714 19.6995 6.69951C19.5471 6.85189 19.3405 6.93749 19.125 6.93749Z" fill="black"/>
<path id="Vector_3" d="M20.75 16.6875H15.0625C14.2005 16.6875 13.3739 16.3451 12.7644 15.7356C12.1549 15.1261 11.8125 14.2995 11.8125 13.4375C11.8125 12.5755 12.1549 11.7489 12.7644 11.1394C13.3739 10.5299 14.2005 10.1875 15.0625 10.1875H20.75C20.9655 10.1875 21.1722 10.2731 21.3245 10.4255C21.4769 10.5778 21.5625 10.7845 21.5625 11V15.875C21.5625 16.0905 21.4769 16.2972 21.3245 16.4495C21.1722 16.6019 20.9655 16.6875 20.75 16.6875ZM15.0625 11.8125C14.6315 11.8125 14.2182 11.9837 13.9135 12.2885C13.6087 12.5932 13.4375 13.0065 13.4375 13.4375C13.4375 13.8685 13.6087 14.2818 13.9135 14.5865C14.2182 14.8913 14.6315 15.0625 15.0625 15.0625H19.9375V11.8125H15.0625Z" fill="black"/>
</g>
</svg>
